<svg xmlns="http://www.w3.org/2000/svg" width="187.122" height="52" viewBox="0 0 187.122 52">
  <g id="Group_8328" data-name="Group 8328" transform="translate(-94 -380)">
    <g id="Group_3" data-name="Group 3" transform="translate(0)">
      <g id="Group_2" data-name="Group 2">
        <path id="Path_1" data-name="Path 1" d="M61.554,77.408c2.011,2.193,3.023,5.177,3.023,8.926v16.581H53.367V87.748a3.784,3.784,0,0,0-1.09-2.867,4.66,4.66,0,0,0-5.864,0,3.8,3.8,0,0,0-1.064,2.867V102.9H34.14V87.748a3.784,3.784,0,0,0-1.09-2.867,4.076,4.076,0,0,0-2.919-1.038,4.077,4.077,0,0,0-2.945,1.038,3.8,3.8,0,0,0-1.064,2.867V102.9H14.9V74.308h7.4a3.854,3.854,0,0,1,3.853,3.853h0a9.049,9.049,0,0,1,3.321-2.945A10.447,10.447,0,0,1,34.413,74.1a10.943,10.943,0,0,1,5.475,1.349,10.111,10.111,0,0,1,3.8,3.775A12.809,12.809,0,0,1,47.7,75.553a10.348,10.348,0,0,1,5.371-1.44C56.715,74.113,59.543,75.2,61.554,77.408Z" transform="translate(79.1 314.605)" fill="#fff"/>
        <path id="Path_2" data-name="Path 2" d="M452.458,89.545H434.463a4.612,4.612,0,0,0,.96,2.919,2.952,2.952,0,0,0,2.128.791,2.734,2.734,0,0,0,2.634-1.674h11.91a12.422,12.422,0,0,1-2.556,5.449,13.78,13.78,0,0,1-4.917,3.8,15.04,15.04,0,0,1-6.513,1.388,15.82,15.82,0,0,1-7.577-1.777,12.64,12.64,0,0,1-5.177-5.1,17.258,17.258,0,0,1,0-15.569,12.641,12.641,0,0,1,5.177-5.1,17.15,17.15,0,0,1,15.153-.026,12.63,12.63,0,0,1,5.177,4.995,15.2,15.2,0,0,1,1.855,7.655A11.58,11.58,0,0,1,452.458,89.545ZM441.3,84.927a3.029,3.029,0,0,0-.908-2.413,3.393,3.393,0,0,0-2.283-.791c-2.063,0-3.243,1.064-3.555,3.192H441.3Z" transform="translate(-276.489 315.65)" fill="#fff"/>
        <path id="Path_3" data-name="Path 3" d="M989.261,7V44.507H978V7Z" transform="translate(-759.049 373)" fill="#fff"/>
        <path id="Path_4" data-name="Path 4" d="M695.594,55.386,682.516,19.5H669.543L656.4,55.386h11.417L665.6,50h1.09a1.5,1.5,0,0,1,1.245-.74,2.193,2.193,0,0,1,2.167-2.543,2.093,2.093,0,0,1,1.194.363,1.793,1.793,0,0,1,1.518-.519,1.405,1.405,0,0,1,1.31-1.012,1.377,1.377,0,0,1,1.271.765,2.179,2.179,0,0,1,1.777.195,1.47,1.47,0,0,1,1.09-.48,1.494,1.494,0,0,1,1.44,1.077,1.811,1.811,0,0,1,1.194.389,1.4,1.4,0,0,1,2.426,1.258A2.18,2.18,0,0,1,685.345,50h1.142l-2.219,5.384Zm-17.787-16.2a2.487,2.487,0,0,0-1-2.011c-1.064-.765-.714-2.569-.714-2.569a6.172,6.172,0,0,0-.675,4.58s-.623-.856-1.207-.947-.921-.921-.921-.921a1.985,1.985,0,0,0,.921,1.622c-4.58-2.128-.74-5.293-.74-5.293-.441,1.687.765,2.1.765,2.1a3.706,3.706,0,0,1,1.362-4.671,1.824,1.824,0,0,0,1.064-2.335,2.68,2.68,0,0,1,.74,3.14c-.675,2.193.532,2.543.532,2.543a1.725,1.725,0,0,1-.35-1.245,2.1,2.1,0,0,1,.947-1.531c-.506,1.777,1.531,2.66,1.531,4.774A3.124,3.124,0,0,1,677.807,39.181Z" transform="translate(-479.173 362.122)" fill="#06c168"/>
      </g>
      <g id="Group_1" data-name="Group 1" transform="translate(234.883 399.002)">
        <path id="Path_5" data-name="Path 5" d="M1142.251,153.912c-2.8-.026-5.644,1.5-8.511,4.619a4.337,4.337,0,0,0,.1-.908,4.951,4.951,0,0,0-.8-2.815,2.306,2.306,0,0,0-2.18-1.09q-.759.058-2.841,2.024c-1.959,1.829-3.023,2.8-3.192,2.945l1.22,1.375a4.617,4.617,0,0,1,1.674-.96c.571,0,.8.337.714,1.012a39.748,39.748,0,0,1-.584,4.541c-1.842,1.868-3.373,2.815-4.58,2.815-1.284,0-1.881-.791-1.777-2.387.039-.441.246-1.583.662-3.451a25.839,25.839,0,0,0,.61-3.957q.1-4.106-3.749-4.2c-3.14-.1-5.215,1.661-6.24,5.267a4.58,4.58,0,0,1,1.7-.35,1.489,1.489,0,0,1,1.233.584,1.929,1.929,0,0,1,.415,1.349,6.9,6.9,0,0,1-2.024,4.229q-1.965,2.257-3.5,2.257c-.714,0-1.051-.61-1.025-1.829a24.117,24.117,0,0,1,.532-3.672,30.924,30.924,0,0,0,.584-3.983,3.788,3.788,0,0,0-.843-2.712,2.757,2.757,0,0,0-2.5-.882c-.74.065-1.842.74-3.3,2.024-1.077.986-2.167,1.959-3.244,2.945l1.168,1.375a5.438,5.438,0,0,1,1.726-1.064c.636,0,.947.441.908,1.323a30,30,0,0,1-.817,3.347,20.947,20.947,0,0,0-.856,4.463,4.759,4.759,0,0,0,.753,3.192q1.051,1.362,3.542,1.168a12.284,12.284,0,0,0,6.059-2.335,21.6,21.6,0,0,0,2.53-2.024,4.668,4.668,0,0,0-.156,1.168,3.65,3.65,0,0,0,.934,2.582,2.962,2.962,0,0,0,2.257,1.012,10.327,10.327,0,0,0,6.8-2.945,20.137,20.137,0,0,0,1.5-1.466q-.175.934-.389,1.946a85.451,85.451,0,0,0-1.725,10.885c-.1,3.269,1.232,4.943,4.009,5.047,3.049.1,5.216-1.661,6.539-5.267a3.482,3.482,0,0,1-1.57.4,1.664,1.664,0,0,1-1.219-.765,6.043,6.043,0,0,1-.908-3.827c.039-1.531.156-3.088.35-4.684a6.909,6.909,0,0,0,3.4.3,11.944,11.944,0,0,0,8.667-5.177,14.557,14.557,0,0,0,2.686-6.993,7.52,7.52,0,0,0,.052-.96C1147.013,155.806,1145.43,153.977,1142.251,153.912Zm-3.5,11.158q-1.829,2.744-3.853,2.841a1.329,1.329,0,0,1-1.271-.48,2.28,2.28,0,0,1-.311-1.388,9.013,9.013,0,0,1,1.829-4.307c1.22-1.751,2.413-2.634,3.594-2.634,1.077,0,1.609.649,1.57,1.933A8.027,8.027,0,0,1,1138.748,165.07Z" transform="translate(-1100.8 -153.467)" fill="#fff"/>
      </g>
    </g>
    <path id="Path_3545" data-name="Path 3545" d="M3.978,0A4.2,4.2,0,0,0,8.424-4.329,4.219,4.219,0,0,0,3.978-8.671H1.014V0Zm0-.962H2.093V-7.709H3.978a3.171,3.171,0,0,1,3.328,3.38A3.188,3.188,0,0,1,3.978-.962ZM24.232,0l-2.34-3.536a2.4,2.4,0,0,0,2.249-2.522,2.526,2.526,0,0,0-2.717-2.613H17.94V0h1.079V-3.445h1.729L22.958,0ZM21.294-4.394H19.019V-7.709h2.275a1.612,1.612,0,0,1,1.729,1.651A1.622,1.622,0,0,1,21.294-4.394ZM34.749,0V-8.671H33.67V0Zm13.78,0,3.5-8.671H50.791L47.866-1.183,44.941-8.671H43.706L47.19,0ZM66.664,0V-.962h-4.6v-2.99h4.511v-.962H62.062v-2.8h4.6v-.962H60.983V0ZM82.5,0l-2.34-3.536a2.4,2.4,0,0,0,2.249-2.522A2.526,2.526,0,0,0,79.69-8.671H76.206V0h1.079V-3.445h1.729L81.224,0ZM79.56-4.394H77.285V-7.709H79.56a1.612,1.612,0,0,1,1.729,1.651A1.622,1.622,0,0,1,79.56-4.394Z" transform="translate(92.986 432)" fill="#fff"/>
  </g>
</svg>
